<svg id="Layer_1" data-name="Layer 1" xmlns="http://www.w3.org/2000/svg" viewBox="0 0 300.57 323.74"><defs><style>.cls-1,.cls-2,.cls-4{fill:#ad1f36;}.cls-2{font-size:16.11px;}.cls-2,.cls-6{font-family:EthnocentricRg-Regular, Ethnocentric;}.cls-3,.cls-6{fill:#4a4a4a;}.cls-4,.cls-5{stroke:#ad1f36;stroke-miterlimit:10;}.cls-4{stroke-width:2px;}.cls-5{fill:none;}.cls-6{font-size:34.49px;}.cls-7{letter-spacing:-0.03em;}.cls-8{letter-spacing:0em;}</style></defs><polygon class="cls-1" points="84.28 253.24 84.28 259.45 50.51 259.45 32.61 259.45 32.61 141.83 0 141.83 150.28 0 300.57 141.83 266.43 141.83 240.68 141.83 240.34 125.1 258.24 125.1 149.52 23.5 40.54 125.34 51.54 125.58 51.54 250.85 84.28 250.61 84.28 253.24"/><text class="cls-2" transform="translate(53.11 319.64) scale(1.31 1)">CONVERSION</text><polygon class="cls-1" points="255.01 106.74 254.57 54.11 235.5 54.11 235.93 88.79 255.01 106.74"/><polygon class="cls-3" points="145.89 170.62 163.52 196.7 204.39 196.7 186.27 171.08 145.89 170.62"/><polygon class="cls-3" points="86.86 99.94 150.11 40.79 208.27 99.92 183.45 99.91 183.29 91.48 150.11 57.68 114.09 91.54 114.04 100.08 86.86 99.94"/><rect class="cls-1" x="136.73" y="74.35" width="11.68" height="9.23"/><rect class="cls-1" x="150.03" y="74.35" width="11.68" height="9.23"/><rect class="cls-1" x="136.73" y="85.05" width="11.68" height="9.23"/><rect class="cls-1" x="150.03" y="85.05" width="11.68" height="9.23"/><rect class="cls-1" x="138.4" y="182.55" width="6" height="4.75"/><rect class="cls-1" x="146.23" y="182.55" width="6" height="4.75"/><rect class="cls-1" x="138.4" y="189.42" width="6" height="4.75"/><rect class="cls-1" x="146.23" y="189.42" width="6" height="4.75"/><line class="cls-4" x1="18.16" y1="314.21" x2="50.68" y2="314.21"/><line class="cls-4" x1="250.55" y1="314.52" x2="283.06" y2="314.52"/><ellipse class="cls-5" cx="145.33" cy="282.26" rx="17.43" ry="16.71"/><path class="cls-1" d="M297.47,389.86l-10.55-10.57a.88.88,0,0,0-1.27,0l-10.58,10.57a.94.94,0,0,0-.26.64l.05,10.15a.9.9,0,0,0,.9.9h7.6a.08.08,0,0,0,.08-.08V391.38a.9.9,0,0,1,.9-.9h4.11a.89.89,0,0,1,.89.9v10.07a.09.09,0,0,0,.08.08h7.39a.9.9,0,0,0,.9-.9l0-10.12A.9.9,0,0,0,297.47,389.86Z" transform="translate(-140.97 -109.1)"/><path class="cls-1" d="M274.19,390.15h-.92l13-13.42,13.1,13.34-.95,0-11.67-11.59a.69.69,0,0,0-1,0Z" transform="translate(-140.97 -109.1)"/><path class="cls-3" d="M279.54,279.64c-.22,0-6.9.06-7,.06l-3.93,0c0-14.84.11-53.69.11-53.69l13.09,0,43.71.56c8.4.36,13.73,7.33,13.73,7.33,3.66,3.51,6.26,17.13,6.26,17.13h4.1l.12-34L221.87,217l.12,9.32,6.5-.63c15.95.39,16.78,11.87,16.78,11.87l.13,33.77s.29,64.73-.13,78.77c-.32,10.81-20,9.62-20,9.62v8.85l124.45-.64,12.45-37.5-4.81,0C354,338.19,343.19,350,343.19,350c-9.38,10.32-25.41,9.8-25.41,9.8l-35.26.12c-6.57,0-9-1-9-1-5.67-.71-4.86-13.15-4.86-13.15l0-26.21,0-13.36c0-.13,17.23-26.32,17.24-26.46" transform="translate(-140.97 -109.1)"/><text class="cls-6" transform="translate(16.14 293.45) scale(1.02 1)"><tspan xml:space="preserve">EPIC   </tspan><tspan class="cls-7" x="146.48" y="0">L</tspan><tspan class="cls-8" x="172.97" y="0">OFT</tspan></text></svg>