<svg id="Layer_1" data-name="Layer 1" xmlns="http://www.w3.org/2000/svg" viewBox="0 0 205.6 223.83"><defs><style>.cls-1{fill:#ad1f36;}.cls-2{font-size:15.55px;stroke-width:0.75px;}.cls-2,.cls-4{fill:none;stroke:#ad1f36;stroke-miterlimit:10;}.cls-2,.cls-5{font-family:EthnocentricRg-Regular, Ethnocentric;}.cls-3,.cls-5{fill:#4a4a4a;}.cls-5{font-size:25.26px;}.cls-6{letter-spacing:-0.03em;}</style></defs><polygon class="cls-1" points="57.65 173.23 57.65 177.48 34.55 177.48 22.3 177.48 22.3 97.02 0 97.02 102.8 0 205.6 97.02 182.25 97.02 164.63 97.02 164.4 85.57 176.65 85.57 102.28 16.07 27.73 85.74 35.25 85.9 35.25 171.59 57.65 171.43 57.65 173.23"/><text class="cls-2" transform="translate(21.71 219.49) scale(1.12 1)">CONVERSION</text><polygon class="cls-1" points="174.44 73.01 174.14 37.02 161.1 37.02 161.39 60.74 174.44 73.01"/><polygon class="cls-3" points="99.79 116.72 111.86 134.55 139.81 134.55 127.42 117.03 99.79 116.72"/><polygon class="cls-3" points="59.42 68.36 102.69 27.9 142.47 68.35 125.49 68.34 125.38 62.58 102.69 39.46 78.04 62.62 78.01 68.46 59.42 68.36"/><rect class="cls-1" x="93.53" y="50.86" width="7.99" height="6.32"/><rect class="cls-1" x="102.63" y="50.86" width="7.99" height="6.32"/><rect class="cls-1" x="93.53" y="58.18" width="7.99" height="6.32"/><rect class="cls-1" x="102.63" y="58.18" width="7.99" height="6.32"/><rect class="cls-1" x="94.67" y="124.87" width="4.11" height="3.25"/><rect class="cls-1" x="100.03" y="124.87" width="4.11" height="3.25"/><rect class="cls-1" x="94.67" y="129.57" width="4.11" height="3.25"/><rect class="cls-1" x="100.03" y="129.57" width="4.11" height="3.25"/><ellipse class="cls-4" cx="99.41" cy="193.08" rx="11.92" ry="11.43"/><path class="cls-1" d="M129.34,205.59l-7.21-7.23a.63.63,0,0,0-.88,0L114,205.59a.67.67,0,0,0-.18.44l0,6.95a.63.63,0,0,0,.62.61h5.2a.06.06,0,0,0,.06-.05v-6.9a.61.61,0,0,1,.61-.61h2.81a.61.61,0,0,1,.61.61v6.89a.06.06,0,0,0,.06.06h5a.61.61,0,0,0,.61-.61l0-6.93A.62.62,0,0,0,129.34,205.59Z" transform="translate(-22.29 -13.54)"/><path class="cls-1" d="M113.41,205.79h-.63l8.89-9.18,9,9.13-.65,0-8-7.93a.46.46,0,0,0-.65,0Z" transform="translate(-22.29 -13.54)"/><path class="cls-3" d="M117.08,130.2c-.16,0-4.72,0-4.8,0h-2.7c0-10.15.08-36.72.08-36.72l9,0,29.89.39c5.75.24,9.39,5,9.39,5,2.51,2.4,4.29,11.72,4.29,11.72H165l.09-23.29-87.46,0,.09,6.38,4.44-.43c10.92.26,11.49,8.11,11.49,8.11l.08,23.1s.2,44.28-.08,53.89c-.22,7.4-13.7,6.58-13.7,6.58V191l85.14-.44,8.51-25.64-3.29,0c-2.31,5.29-9.68,13.33-9.68,13.33-6.42,7.06-17.39,6.71-17.39,6.71l-24.12.08c-4.49,0-6.15-.66-6.15-.66-3.88-.49-3.33-9-3.33-9l0-17.93v-9.14c0-.09,11.78-18,11.79-18.1" transform="translate(-22.29 -13.54)"/><text class="cls-5" transform="translate(4.41 201.21) scale(1.02 1)"><tspan xml:space="preserve">EPIC   </tspan><tspan class="cls-6" x="107.28" y="0">L</tspan><tspan x="126.68" y="0">OFT</tspan></text></svg>